<?xml version="1.0" encoding="UTF-8"?>
<svg width="719px" height="1161px" viewBox="0 0 719 1161" version="1.1" xmlns="http://www.w3.org/2000/svg" xmlns:xlink="http://www.w3.org/1999/xlink">
    <!-- Generator: Sketch 62 (91390) - https://sketch.com -->
    <title>S</title>
    <desc>Created with Sketch.</desc>
    <g id="Page-1" stroke="none" stroke-width="1" fill="none" fill-rule="evenodd" opacity="0.0365513393">
        <g id="Desktop-HD-Copy-2" transform="translate(-721.000000, 0.000000)" fill="#000000" fill-rule="nonzero">
            <path d="M1193,1161 C1525.8,1161 1689,994.571429 1689,799.337912 C1689,386.467033 1053.8,514.489011 1053.8,343.259615 C1053.8,287.25 1101.8,242.442308 1234.6,242.442308 C1332.2,242.442308 1437.8,271.247253 1545,328.857143 L1642.6,93.6167582 C1532.2,29.6057692 1381.8,-4 1236.2,-4 C903.4,-4 740.2,159.228022 740.2,359.262363 C740.2,775.333791 1377,645.711538 1377,823.342033 C1377,877.751374 1325.8,914.557692 1194.6,914.557692 C1065,914.557692 924.2,869.75 825,804.138736 L721,1037.77885 C826.6,1111.39148 1009,1161 1193,1161 Z" id="S"></path>
        </g>
    </g>
</svg>